HIERARCHY
ROOT Hips
{
	OFFSET -14.64140 90.27770 -84.91600
	CHANNELS 6 Xposition Yposition Zposition Zrotation Xrotation Yrotation
	JOINT Spine
	{
		OFFSET 0.00000 13.20850 -1.60436
		CHANNELS 3 Zrotation Xrotation Yrotation
		JOINT Spine1
		{
			OFFSET 0.00000 8.61716 0.00000
			CHANNELS 3 Zrotation Xrotation Yrotation
			JOINT Spine2
			{
				OFFSET 0.00000 8.61717 0.00000
				CHANNELS 3 Zrotation Xrotation Yrotation
				JOINT Spine3
				{
					OFFSET 0.00000 8.61717 0.00000
					CHANNELS 3 Zrotation Xrotation Yrotation
					JOINT Neck
					{
						OFFSET 0.00000 11.07920 1.10792
						CHANNELS 3 Zrotation Xrotation Yrotation
						JOINT Neck1
						{
							OFFSET 0.00000 7.08032 0.00000
							CHANNELS 3 Zrotation Xrotation Yrotation
							JOINT Head
							{
								OFFSET 0.00000 7.08031 0.00000
								CHANNELS 3 Zrotation Xrotation Yrotation
								End site
								{
									OFFSET 0.00000 0.00000 0.00000
								}
							}
						}
					}
					JOINT RightShoulder
					{
						OFFSET -0.01000 7.91373 5.19711
						CHANNELS 3 Zrotation Xrotation Yrotation
						JOINT RightArm
						{
							OFFSET -18.41580 0.00000 0.00000
							CHANNELS 3 Zrotation Xrotation Yrotation
							JOINT RightForeArm
							{
								OFFSET -29.11090 0.00000 0.00000
								CHANNELS 3 Zrotation Xrotation Yrotation
								JOINT RightHand
								{
									OFFSET -24.65040 0.00000 0.00000
									CHANNELS 3 Zrotation Xrotation Yrotation
									JOINT RightHandThumb1
									{
										OFFSET -5.35114 -0.85590 3.97906
										CHANNELS 3 Zrotation Xrotation Yrotation
										JOINT RightHandThumb2
										{
											OFFSET -4.52789 0.00000 0.00000
											CHANNELS 3 Zrotation Xrotation Yrotation
											JOINT RightHandThumb3
											{
												OFFSET -2.46976 0.00000 0.00000
												CHANNELS 3 Zrotation Xrotation Yrotation
												End site
												{
													OFFSET 0.00000 0.00000 0.00000
												}
											}
										}
									}
									JOINT RightHandIndex1
									{
										OFFSET -14.26970 0.00000 2.88139
										CHANNELS 3 Zrotation Xrotation Yrotation
										JOINT RightHandIndex2
										{
											OFFSET -5.48836 0.00000 0.00000
											CHANNELS 3 Zrotation Xrotation Yrotation
											JOINT RightHandIndex3
											{
												OFFSET -3.01859 0.00000 0.00000
												CHANNELS 3 Zrotation Xrotation Yrotation
												End site
												{
													OFFSET 0.00000 0.00000 0.00000
												}
											}
										}
									}
									JOINT RightHandMiddle1
									{
										OFFSET -14.26970 0.00000 -0.09147
										CHANNELS 3 Zrotation Xrotation Yrotation
										JOINT RightHandMiddle2
										{
											OFFSET -6.17441 0.00000 0.00000
											CHANNELS 3 Zrotation Xrotation Yrotation
											JOINT RightHandMiddle3
											{
												OFFSET -3.56743 0.00000 0.00000
												CHANNELS 3 Zrotation Xrotation Yrotation
												End site
												{
													OFFSET 0.00000 0.00000 0.00000
												}
											}
										}
									}
									JOINT RightHandRing1
									{
										OFFSET -12.69180 0.00000 -3.06433
										CHANNELS 3 Zrotation Xrotation Yrotation
										JOINT RightHandRing2
										{
											OFFSET -5.62556 0.00000 0.00000
											CHANNELS 3 Zrotation Xrotation Yrotation
											JOINT RightHandRing3
											{
												OFFSET -3.56744 0.00000 0.00000
												CHANNELS 3 Zrotation Xrotation Yrotation
												End site
												{
													OFFSET 0.00000 0.00000 0.00000
												}
											}
										}
									}
									JOINT RightHandPinky1
									{
										OFFSET -11.11390 0.00000 -6.03719
										CHANNELS 3 Zrotation Xrotation Yrotation
										JOINT RightHandPinky2
										{
											OFFSET -4.52789 0.00000 0.00000
											CHANNELS 3 Zrotation Xrotation Yrotation
											JOINT RightHandPinky3
											{
												OFFSET -2.46976 0.00000 0.00000
												CHANNELS 3 Zrotation Xrotation Yrotation
												End site
												{
													OFFSET 0.00000 0.00000 0.00000
												}
											}
										}
									}
								}
							}
						}
					}
					JOINT LeftShoulder
					{
						OFFSET 0.01000 7.91373 5.19711
						CHANNELS 3 Zrotation Xrotation Yrotation
						JOINT LeftArm
						{
							OFFSET 18.41580 0.00000 0.00000
							CHANNELS 3 Zrotation Xrotation Yrotation
							JOINT LeftForeArm
							{
								OFFSET 29.11090 0.00000 0.00000
								CHANNELS 3 Zrotation Xrotation Yrotation
								JOINT LeftHand
								{
									OFFSET 24.65040 0.00000 0.00000
									CHANNELS 3 Zrotation Xrotation Yrotation
									JOINT LeftHandThumb1
									{
										OFFSET 5.35114 -0.85590 3.97906
										CHANNELS 3 Zrotation Xrotation Yrotation
										JOINT LeftHandThumb2
										{
											OFFSET 4.52789 0.00000 0.00000
											CHANNELS 3 Zrotation Xrotation Yrotation
											JOINT LeftHandThumb3
											{
												OFFSET 2.46977 0.00000 0.00000
												CHANNELS 3 Zrotation Xrotation Yrotation
												End site
												{
													OFFSET 0.00000 0.00000 0.00000
												}
											}
										}
									}
									JOINT LeftHandIndex1
									{
										OFFSET 14.26970 0.00000 2.88139
										CHANNELS 3 Zrotation Xrotation Yrotation
										JOINT LeftHandIndex2
										{
											OFFSET 5.48836 0.00000 0.00000
											CHANNELS 3 Zrotation Xrotation Yrotation
											JOINT LeftHandIndex3
											{
												OFFSET 3.01859 0.00000 0.00000
												CHANNELS 3 Zrotation Xrotation Yrotation
												End site
												{
													OFFSET 0.00000 0.00000 0.00000
												}
											}
										}
									}
									JOINT LeftHandMiddle1
									{
										OFFSET 14.26970 0.00000 -0.09147
										CHANNELS 3 Zrotation Xrotation Yrotation
										JOINT LeftHandMiddle2
										{
											OFFSET 6.17440 0.00000 0.00000
											CHANNELS 3 Zrotation Xrotation Yrotation
											JOINT LeftHandMiddle3
											{
												OFFSET 3.56744 0.00000 0.00000
												CHANNELS 3 Zrotation Xrotation Yrotation
												End site
												{
													OFFSET 0.00000 0.00000 0.00000
												}
											}
										}
									}
									JOINT LeftHandRing1
									{
										OFFSET 12.69180 0.00000 -3.06433
										CHANNELS 3 Zrotation Xrotation Yrotation
										JOINT LeftHandRing2
										{
											OFFSET 5.62556 0.00000 0.00000
											CHANNELS 3 Zrotation Xrotation Yrotation
											JOINT LeftHandRing3
											{
												OFFSET 3.56744 0.00000 0.00000
												CHANNELS 3 Zrotation Xrotation Yrotation
												End site
												{
													OFFSET 0.00000 0.00000 0.00000
												}
											}
										}
									}
									JOINT LeftHandPinky1
									{
										OFFSET 11.11390 0.00000 -6.03719
										CHANNELS 3 Zrotation Xrotation Yrotation
										JOINT LeftHandPinky2
										{
											OFFSET 4.52789 0.00000 0.00000
											CHANNELS 3 Zrotation Xrotation Yrotation
											JOINT LeftHandPinky3
											{
												OFFSET 2.46976 0.00000 0.00000
												CHANNELS 3 Zrotation Xrotation Yrotation
												End site
												{
													OFFSET 0.00000 0.00000 0.00000
												}
											}
										}
									}
								}
							}
						}
					}
					JOINT pCube4
					{
						OFFSET 0.00000 10.91090 1.10792
						CHANNELS 3 Zrotation Xrotation Yrotation
						End site
						{
							OFFSET 0.00000 0.00000 0.00000
						}
					}
				}
			}
		}
	}
	JOINT RightUpLeg
	{
		OFFSET -9.98441 0.00000 0.00000
		CHANNELS 3 Zrotation Xrotation Yrotation
		JOINT RightLeg
		{
			OFFSET 0.00000 -42.11790 0.00000
			CHANNELS 3 Zrotation Xrotation Yrotation
			JOINT RightFoot
			{
				OFFSET 0.00000 -45.00020 -0.00001
				CHANNELS 3 Zrotation Xrotation Yrotation
				JOINT RightForeFoot
				{
					OFFSET 0.00000 -3.74820 0.00000
					CHANNELS 3 Zrotation Xrotation Yrotation
					JOINT RightToeBase
					{
						OFFSET 0.00000 0.06325 14.43120
						CHANNELS 3 Zrotation Xrotation Yrotation
						End site
						{
							OFFSET 0.00000 0.00000 0.00000
						}
					}
				}
			}
		}
	}
	JOINT LeftUpLeg
	{
		OFFSET 9.98441 0.00000 0.00000
		CHANNELS 3 Zrotation Xrotation Yrotation
		JOINT LeftLeg
		{
			OFFSET 0.00000 -42.11800 0.00000
			CHANNELS 3 Zrotation Xrotation Yrotation
			JOINT LeftFoot
			{
				OFFSET 0.00000 -45.00070 0.00000
				CHANNELS 3 Zrotation Xrotation Yrotation
				JOINT LeftForeFoot
				{
					OFFSET 0.00000 -3.74824 0.00000
					CHANNELS 3 Zrotation Xrotation Yrotation
					JOINT LeftToeBase
					{
						OFFSET 0.00000 0.06325 14.43110
						CHANNELS 3 Zrotation Xrotation Yrotation
						End site
						{
							OFFSET 0.00000 0.00000 0.00000
						}
					}
				}
			}
		}
	}
}
MOTION
Frames: 4
Frame Time: 0.050000
0.03354105935269233 0.03262391150078223 0.0264270228295405 -0.0007659693142508165 0.028438526485105593 0.012574730779121574 -1.3221689294157766 0.7933166764433728 -1.2243959029980944 -0.13325061581573383 3.766364357550983 0.24773053493069877 -0.5776172086574617 -1.9123836985598264 0.6070059153845333 -1.0653270059627964 -1.214701575550034 -0.3810043661205283 -0.4106522972660313 12.091246826225847 -0.5867139107788049 0.584369684081729 -1.431980649148684 -1.7572876456925675 0.942265017313559 -17.31145312705781 -0.1908999333826475 0.08236586038781646 0.6878307783077166 -14.790607942168213 73.99969850354357 7.76953019820481 3.9599561128222285 28.25919098498741 16.213870888673526 101.87220752590872 27.704009002101174 -0.24463433700743106 -5.2132193220284 4.483745979279936 -0.13693543938890437 -1.611522236383 -0.03051327604364318 -0.017095444328936612 -56.210169152895865 0.008168252001919906 -0.009697699729519924 -56.26906242293392 -38.809027534761526 0.003507663582664791 0.005221380352360604 -0.042141128483363835 0.026074167845886283 0.011735795273859491 0.016624645637228586 0.021287278565009223 0.0075398295565536734 -36.71059875497004 0.02871800402159785 -0.03595111694364104 0.021317214411224986 -0.005642936928590313 -0.003559768804639607 0.02529733396682433 -0.022092278337291504 0.0432553224636819 -19.753480440298343 0.033527672112606904 -0.004223119937319492 0.04063716039812399 0.040217878709479814 -0.04755703355807085 0.0499724844334722 0.004581562477831244 0.018835303063162306 24.04338569885497 -0.029526656617605878 0.03666747366244042 28.850238823219623 0.003555585952219464 0.04868384730847865 28.8607219433127 0.0481606248599539 0.03551887522501171 4.337440992783388 1.4252057327834506 13.896172071795563 -79.38088725885683 13.715065300060646 -10.19150738772007 -62.203891191902535 23.151373132082607 -108.8173711969805 -29.581647141853235 3.7607999048907668 -1.4966823721603097 -0.4671574929024927 0.04869206974462806 -8.098793654595365 -0.030268675872626473 0.0009641431803692068 44.57082776976612 -0.019331683608992203 -0.019878692780591303 44.61256855181997 12.481009013146096 0.0023082052920515754 0.027596103057168038 0.007014699271571536 -0.045214622145928224 -0.0457872207157835 0.040065699212139816 0.03214249535935853 0.03312098352069999 11.104360748634141 0.04473842815392999 -0.024949087607747455 0.02251796937784875 -0.04403945171060127 -0.0345413205556617 -0.03960635970728578 0.019293641996650852 0.02359217161951001 4.775351496754207 -0.04187166590801684 0.02957366700429114 -0.01825913118292656 0.01920928302945285 0.0068191687036314105 0.03645630058398589 0.04358836426510668 -0.006224657943583024 -5.646916462082385 0.030905455305256627 0.03072781590401957 -6.70984719236602 -0.012043788960200877 0.01833414663072184 -6.694041851358469 0.015050130484671704 -0.022270503855137885 0.002014386659148148 -0.031877412862494785 -0.02405215344542547 8.015030144485934 3.487547886063292 -19.180168113650566 -0.022531074261057275 10.357447934861911 0.0059713437496777474 -5.669454988481314 -15.661153616390738 3.2219835350092247 0.0481066027197899 -0.016682179104631982 0.04459466624556558 -0.004634271224069637 4.677836316733952 -0.03736186229939234 12.461084515545387 -8.240059173945209 6.891807179513762 0.00013415805999703354 46.38636275458239 -0.029374763981278893 -4.275264121629383 -14.760461402788229 -3.785803735345308 -0.016318725270065417 0.03691855655929255 -0.03373546026129559 -0.037671021492437985 -10.721798582033626 -0.033649320316445096 
-0.047350166460265915 -0.027591297550451935 0.018268386227125687 0.028144257531799378 -0.011396454839183359 -0.026459501219137815 -1.4528980434869685 1.0474856978093403 -1.1987584143649124 -0.14566170760252262 3.8268200516492645 0.27332856033469893 -0.6161714517269292 -1.8739379382114547 0.566625587295347 -1.1498255687915264 -1.233219196119817 -0.441881874901852 -0.47204159360841524 12.03157687747871 -0.35938442868229725 0.5860460486679007 -1.492924296948688 -1.5107291054961278 0.8815483954378339 -17.28220187753406 -0.20236079482070246 0.25748818784318017 0.6302422151012737 -14.666230207137737 73.78423982166419 8.203165475882514 3.820640237221471 25.718780288676015 16.32384848088635 100.25885028262192 27.75956085289522 -0.2997390722385992 -4.894933446814817 4.5169436821513775 -0.11344128684463327 -1.5888379873477079 0.0368872931974243 0.016353310338070866 -56.21521027878515 -0.0224450774918966 0.002384880201674042 -56.251662359649146 -38.79557994828256 0.020524171756732927 0.03521192363601919 0.009332078932194664 0.008080675064529561 -0.021581939376542514 -0.017591389342035312 0.0026595970840281448 -0.0045276942012595425 -36.657446952324676 0.00668156876684108 -0.0008815724648739306 0.04183454180439501 0.022489030354098234 -0.018802401139191516 -0.04625152187529731 -0.011497173291643096 -0.004017092021516473 -19.753585236948762 0.019828220233120378 0.0036685526565718904 0.018395641692776993 -0.04726307071410438 -0.024925164233208882 0.029939034168605 0.043368482273052386 -0.01622427255721556 24.058248436699536 -0.008065799553859145 -0.0006676004464161532 28.85233205866943 0.02404400304959228 0.04340472831890198 28.842404140116038 -0.010499738266391738 -0.03916474962893652 4.193041942938895 1.3836284353272588 13.803249226067557 -78.81178264528509 14.592390403272452 -10.121587366320833 -57.976527374539494 22.774184089026818 -106.05742421618774 -30.335713373174436 2.8915087728641367 -0.975171097061278 -0.5060528555433041 0.05547520798822683 -8.155192660227607 0.021327866906670417 0.049970505866902076 44.58554729037682 0.04088560740433985 -0.0015523784124496832 44.54419838143658 12.411555644929276 0.03692284241653352 0.020168822199888175 0.02085091965825475 -0.012644804784385287 0.018286571199682366 -0.04916160167110868 -0.00427858973667721 -0.02475537789127706 11.066556131996382 0.04251612328704808 0.007836736699344584 0.03942052260360116 -0.023305110731126902 0.019026915817640627 0.018659670126304605 -0.006014653418492947 0.04634731490475265 4.809071734139947 0.041001708571789065 -0.02513364716416453 0.013940416216780608 0.014773048056807226 -0.04157231725821316 0.04767433524606113 -0.03574872339284285 0.0325248523900141 -5.616842536451037 -0.03267007114090243 0.03705238942002793 -6.710340941207216 0.03640185823893717 -0.019587136589657526 -6.713726430956245 -0.01761966085836288 -0.03379242643351428 -0.024035078895505053 -0.0002821450663568395 -0.003915040229947165 8.001112494701497 3.473577716114855 -19.19938331367301 0.006596787266410741 10.395492592621075 0.008042061322462473 -5.594375863353394 -15.688405632620627 3.1789006257624637 -0.00843206731997678 0.004730335242286452 0.003102511775140352 -0.00802863816918805 4.705948434879703 0.008722380618169708 12.47948437026664 -8.24356334619787 6.846184134813198 -0.04587305433105782 46.3921257390093 -0.03909735533500001 -4.283027440263606 -14.781272627261771 -3.8559423299008118 -0.042987017025430556 0.007130985273096051 0.03347325300777752 0.029917232243024065 -10.735535111602646 0.01348367196057068 
0.02121849256744708 0.04206475910008696 0.00605204358870284 -0.03008838590472665 -0.005395401557980607 0.048260324241132996 -1.172855067927605 1.2231906930386 -1.214353834870268 -0.20164290659284428 3.771045628295046 0.23891362420046763 -0.5798201044404863 -1.8213837438020792 0.5852614610001118 -1.0986975674706108 -1.1077521730162525 -0.41585929864698 -0.5203852581539367 11.918633186516688 -0.2859788492031873 0.5416724959437969 -1.4799507810196073 -1.1397262133244261 0.7848145305841338 -17.22898783352691 -0.14376442849394377 0.09510723280354912 0.7308142556259961 -14.640961707059628 73.91793644479952 9.289866198150461 3.110293491293351 22.844248179998285 16.276300339766635 97.26436293653472 27.68392192573183 -0.33081347302371733 -4.92833338519698 4.534230429780769 -0.09367624314022441 -1.583322995517332 -0.005723204612152916 0.0494272592510983 -56.24504820423567 0.03761671473604462 0.03188742492836546 -56.24772088567605 -38.721908979818416 0.005125697721145713 -0.009791918164536659 0.013051755241740709 -0.03325020785210101 -0.009344650015459158 0.027215903981976305 0.006674342536743683 -0.027250144637622195 -36.73373689451947 -0.0204994899103569 -0.016482067497916374 -0.0405773167870207 0.01766750574539249 -0.02614061115394523 0.0038912058392346913 -0.001005559804325505 -0.020166262740758865 -19.709553331106502 -0.0003629999979113595 -0.014289576575206053 0.003994635183112026 -0.005528498311351549 -0.01870622730430027 0.04552702652008908 -0.005456368995851864 0.031278037594131065 24.101587081852685 0.0035975885533405336 -0.012816288760299693 28.843249310471375 -0.036338168892117585 -0.01825407253446279 28.871314301533953 0.03466120721875061 -0.000917773179523709 4.329987835836853 1.470227755018741 13.79241724908365 -78.21693539003084 15.94683154360464 -10.13111480120455 -53.58651127385961 21.910693336125693 -102.79183116010266 -30.915855625096793 1.18677342883888 0.45176916846378956 -0.4995425427191721 0.047128010652294425 -8.136746422029827 -0.03873943352040742 -0.010165406550480323 44.5518024280412 0.03844165580148489 -0.02889489423855576 44.53336962282491 12.442262256453715 0.04103402158633397 0.046617702021154075 0.004182217654968667 0.011423987313025083 -0.012911060764326101 -0.005664598452821879 0.027464013962958153 -0.011712139839387325 11.094014742914569 0.009557968797890254 0.006142311073871417 0.039092245279518475 -0.029672137599041727 0.039750838183063276 -0.046145292458537795 -0.011720082346117267 0.0052380933369270775 4.77381505362557 0.044808543754723915 -0.037608240121053835 0.03098439856534018 0.027066925307859764 0.007429936548803529 0.04972628850320195 -0.021822330050417272 -0.03308452776022106 -5.610546735406545 0.027235786311755338 0.010241602549269114 -6.714979527874827 -0.030980497623504823 -0.006904246604995024 -6.763123850038725 0.0043289660588477635 -0.03420884519774386 0.049412590644413466 0.004114082313988026 -0.04505185502607534 8.052309123846102 3.499626002667276 -19.195956893356367 0.03284720641678015 10.439304301942833 0.020195955478265006 -5.621046825736665 -15.693380199010903 3.210183058884412 -0.02286438654280189 -0.013221838694031355 0.013762982921576256 -0.010564170269438662 4.743389252271692 0.020432643596576868 12.423415942352866 -8.271215445837482 6.864983837421811 0.026926543794906742 46.40791035161081 -0.005769402548913164 -4.3464099314892275 -14.708890522808002 -3.802605087664548 0.0021512232916902044 -0.01351590416722758 5.5915980866991385e-06 0.009835622763492086 -10.756162382044089 0.03071795385500678 
0.008713791601756251 -0.031132485622895518 0.00593279762569093 -0.030262917391491576 -0.026278057468800464 0.04758417359042233 -0.5272335601935981 1.402251693632624 -1.3131714487332051 -0.20692526675894882 3.762016634969406 0.23610880289452535 -0.5728079515868533 -1.6642259660191119 0.46226928364113823 -1.013734219178299 -1.026068364313476 -0.3802896972355937 -0.4880198480175772 11.769141785613296 -0.20939562775607382 0.4930911069030191 -1.3338259571262017 -0.8776567710179695 0.7702755963034627 -17.160940222349748 -0.1572581120135546 -0.4496136271543659 0.9000116921312447 -14.795661436482641 74.42695501339682 10.542563984885511 2.17497745047805 20.752007660148955 15.674041802485881 94.51631888893573 27.000050307083498 -0.31822393111398983 -5.05273724439905 4.4860021115647895 -0.146361016108078 -1.605521055596467 -0.04343900915636658 0.02542888910340902 -56.21715213598534 -0.02308588692092089 0.008432194683403343 -56.226645441466594 -38.81363762086174 -0.025845545156904164 0.033682500961154875 0.016217884897957637 -0.012873171979398402 0.01988552936740074 -0.04609612937481568 -0.009895825921950211 -0.014265681987084403 -36.712765835624324 -0.029886921220439257 -0.03895730665348573 0.03854178741811396 0.007443207310028146 -0.0343896802599084 -0.03441076558940789 -0.0010641360724897699 -0.008297801001619018 -19.741579546350223 -0.004006628882950841 -0.03795456183917892 -0.022109647080010016 -0.0019317797921676032 -0.011420716971424391 0.04482648739900001 0.03136272738785055 -0.012651867126395417 24.0826867152726 -0.026600200972594412 -0.04572158821142951 28.881110884890337 0.045980280934930576 0.006894281847827404 28.892885123832134 -0.023229619875909432 0.03564906430751837 4.752889656511881 1.5230460395523593 13.771860923112373 -77.49279755268323 17.826291960653617 -10.27637334825183 -49.93296017948664 20.309655045660644 -99.91423006571031 -30.894848109502007 -1.275512473219246 2.463328266371598 -0.5222829568783137 0.07733413294965653 -8.160464469507897 -0.03410257512045441 0.0412144993956383 44.56292072477533 -0.015254420362552838 0.002507267745818033 44.54129464408069 12.48045103398119 -0.02415115545489943 -0.009191171365617925 -0.03089221795714742 0.03383311354121666 -0.04047651508977913 -0.03427243032061814 -0.012702296365243641 0.03242036513594448 11.141618491130838 -0.008820464904862345 0.00950977570938286 0.02658651021012546 0.002901679604714396 0.009920390665179144 0.012181165092404649 0.0010602172600729265 0.015274492272280367 4.783984819215002 -0.0012608903437393909 -0.022556338874129847 -0.022627989842170924 0.016752016220077756 -0.019456125342950083 0.0055609066980408985 0.007438381955844697 -0.027003449522028787 -5.589448727280438 -0.04514577174668046 0.024023234850314032 -6.754931708737521 0.03381079313709114 -0.03752925268225615 -6.688001632697363 0.029092193825724012 -0.03347317104216947 -0.030171488393333386 -0.04127752197540264 0.029851133109458996 8.03460046679582 3.5009645141590777 -19.256590455966798 0.029965010425391844 10.403746457341907 -0.004822374359935003 -5.605832192786199 -15.635427470019648 3.194943639842483 0.010964126003740044 0.006271709943676156 -0.009481278358690151 0.00995894835510299 4.726127214277329 0.04172306056905468 12.44816926151867 -8.260397767182994 6.926976643657149 0.028302468316321678 46.38969324204345 0.042744188739993715 -4.298975659191174 -14.722486594301191 -3.791414072919334 0.014285421587947189 -0.0404235179107276 -0.028437862111410812 -0.01752626232158944 -10.740769195671632 0.01764919373978577 
